<svg width="155" height="28" viewBox="0 0 155 28" fill="none" xmlns="http://www.w3.org/2000/svg">
<path d="M0.275568 27V0.818181H10.7585C12.6847 0.818181 14.2912 1.10369 15.5781 1.67472C16.8651 2.24574 17.8324 3.03835 18.4801 4.05256C19.1278 5.05824 19.4517 6.21733 19.4517 7.52983C19.4517 8.55256 19.2472 9.4517 18.8381 10.2273C18.429 10.9943 17.8665 11.625 17.1506 12.1193C16.4432 12.6051 15.6335 12.9503 14.7216 13.1548V13.4105C15.7188 13.4531 16.652 13.7344 17.5213 14.2543C18.3991 14.7741 19.1108 15.5028 19.6562 16.4403C20.2017 17.3693 20.4744 18.4773 20.4744 19.7642C20.4744 21.1534 20.1293 22.3935 19.4389 23.4844C18.7571 24.5668 17.7472 25.4233 16.4091 26.054C15.071 26.6847 13.4219 27 11.4616 27H0.275568ZM5.81108 22.4744H10.3239C11.8665 22.4744 12.9915 22.1804 13.6989 21.5923C14.4063 20.9957 14.7599 20.2031 14.7599 19.2145C14.7599 18.4901 14.5852 17.8509 14.2358 17.2969C13.8864 16.7429 13.3878 16.3082 12.7401 15.9929C12.1009 15.6776 11.3381 15.5199 10.4517 15.5199H5.81108V22.4744ZM5.81108 11.7741H9.91477C10.6733 11.7741 11.3466 11.642 11.9347 11.3778C12.5313 11.1051 13 10.7216 13.3409 10.2273C13.6903 9.73295 13.8651 9.14062 13.8651 8.45028C13.8651 7.50426 13.5284 6.74148 12.8551 6.16193C12.1903 5.58239 11.2443 5.29261 10.017 5.29261H5.81108V11.7741ZM32.8462 27.3835C30.8604 27.3835 29.1431 26.9616 27.6942 26.1179C26.2539 25.2656 25.1417 24.081 24.3576 22.5639C23.5735 21.0384 23.1815 19.2699 23.1815 17.2585C23.1815 15.2301 23.5735 13.4574 24.3576 11.9403C25.1417 10.4148 26.2539 9.23011 27.6942 8.38636C29.1431 7.53409 30.8604 7.10795 32.8462 7.10795C34.832 7.10795 36.5451 7.53409 37.9854 8.38636C39.4343 9.23011 40.5508 10.4148 41.3349 11.9403C42.119 13.4574 42.511 15.2301 42.511 17.2585C42.511 19.2699 42.119 21.0384 41.3349 22.5639C40.5508 24.081 39.4343 25.2656 37.9854 26.1179C36.5451 26.9616 34.832 27.3835 32.8462 27.3835ZM32.8718 23.1648C33.7752 23.1648 34.5295 22.9091 35.1346 22.3977C35.7397 21.8778 36.1957 21.1705 36.5025 20.2756C36.8178 19.3807 36.9755 18.3622 36.9755 17.2202C36.9755 16.0781 36.8178 15.0597 36.5025 14.1648C36.1957 13.2699 35.7397 12.5625 35.1346 12.0426C34.5295 11.5227 33.7752 11.2628 32.8718 11.2628C31.9599 11.2628 31.1928 11.5227 30.5707 12.0426C29.957 12.5625 29.4925 13.2699 29.1772 14.1648C28.8704 15.0597 28.717 16.0781 28.717 17.2202C28.717 18.3622 28.8704 19.3807 29.1772 20.2756C29.4925 21.1705 29.957 21.8778 30.5707 22.3977C31.1928 22.9091 31.9599 23.1648 32.8718 23.1648ZM54.9244 27.3835C52.9386 27.3835 51.2212 26.9616 49.7724 26.1179C48.332 25.2656 47.2198 24.081 46.4357 22.5639C45.6516 21.0384 45.2596 19.2699 45.2596 17.2585C45.2596 15.2301 45.6516 13.4574 46.4357 11.9403C47.2198 10.4148 48.332 9.23011 49.7724 8.38636C51.2212 7.53409 52.9386 7.10795 54.9244 7.10795C56.9102 7.10795 58.6232 7.53409 60.0636 8.38636C61.5124 9.23011 62.6289 10.4148 63.413 11.9403C64.1971 13.4574 64.5891 15.2301 64.5891 17.2585C64.5891 19.2699 64.1971 21.0384 63.413 22.5639C62.6289 24.081 61.5124 25.2656 60.0636 26.1179C58.6232 26.9616 56.9102 27.3835 54.9244 27.3835ZM54.9499 23.1648C55.8533 23.1648 56.6076 22.9091 57.2127 22.3977C57.8178 21.8778 58.2738 21.1705 58.5806 20.2756C58.896 19.3807 59.0536 18.3622 59.0536 17.2202C59.0536 16.0781 58.896 15.0597 58.5806 14.1648C58.2738 13.2699 57.8178 12.5625 57.2127 12.0426C56.6076 11.5227 55.8533 11.2628 54.9499 11.2628C54.038 11.2628 53.271 11.5227 52.6488 12.0426C52.0352 12.5625 51.5707 13.2699 51.2553 14.1648C50.9485 15.0597 50.7951 16.0781 50.7951 17.2202C50.7951 18.3622 50.9485 19.3807 51.2553 20.2756C51.5707 21.1705 52.0352 21.8778 52.6488 22.3977C53.271 22.9091 54.038 23.1648 54.9499 23.1648ZM73.065 21.3494L73.0778 14.8168H73.8704L80.1602 7.36364H86.4116L77.9613 17.233H76.6701L73.065 21.3494ZM68.1303 27V0.818181H73.5763V27H68.1303ZM80.4031 27L74.6246 18.4474L78.2553 14.5994L86.7823 27H80.4031ZM105.422 12.9631L100.436 13.2699C100.35 12.8437 100.167 12.4602 99.886 12.1193C99.6048 11.7699 99.234 11.4929 98.7738 11.2884C98.3221 11.0753 97.7809 10.9688 97.1502 10.9688C96.3065 10.9688 95.5948 11.1477 95.0153 11.5057C94.4357 11.8551 94.146 12.3239 94.146 12.9119C94.146 13.3807 94.3335 13.777 94.7085 14.1009C95.0835 14.4247 95.7269 14.6847 96.6389 14.8807L100.193 15.5966C102.102 15.9886 103.525 16.6193 104.463 17.4886C105.4 18.358 105.869 19.5 105.869 20.9148C105.869 22.2017 105.49 23.331 104.731 24.3026C103.981 25.2741 102.95 26.0327 101.637 26.5781C100.333 27.1151 98.8292 27.3835 97.1246 27.3835C94.5252 27.3835 92.4542 26.8423 90.9116 25.7599C89.3775 24.669 88.4783 23.1861 88.2141 21.3111L93.5707 21.0298C93.7326 21.8224 94.1246 22.4276 94.7468 22.8452C95.369 23.2543 96.1658 23.4588 97.1374 23.4588C98.092 23.4588 98.859 23.2756 99.4386 22.9091C100.027 22.5341 100.325 22.0526 100.333 21.4645C100.325 20.9702 100.116 20.5653 99.707 20.25C99.2979 19.9261 98.6673 19.679 97.815 19.5085L94.4144 18.831C92.4968 18.4474 91.0692 17.7827 90.1317 16.8366C89.2028 15.8906 88.7383 14.6847 88.7383 13.2188C88.7383 11.9574 89.0792 10.8707 89.761 9.95881C90.4513 9.04688 91.4187 8.34375 92.663 7.84943C93.9158 7.35511 95.3817 7.10795 97.0607 7.10795C99.5408 7.10795 101.493 7.6321 102.916 8.6804C104.348 9.72869 105.183 11.1562 105.422 12.9631ZM119.743 7.36364V11.4545H107.918V7.36364H119.743ZM110.602 2.65909H116.048V20.9659C116.048 21.4687 116.125 21.8608 116.278 22.142C116.432 22.4148 116.645 22.6065 116.918 22.7173C117.199 22.8281 117.523 22.8835 117.889 22.8835C118.145 22.8835 118.401 22.8622 118.656 22.8196C118.912 22.7685 119.108 22.7301 119.244 22.7045L120.101 26.7571C119.828 26.8423 119.445 26.9403 118.95 27.0511C118.456 27.1705 117.855 27.2429 117.148 27.2685C115.835 27.3196 114.685 27.1449 113.696 26.7443C112.716 26.3437 111.953 25.7216 111.408 24.8778C110.862 24.0341 110.594 22.9687 110.602 21.6818V2.65909ZM128.89 27.3707C127.637 27.3707 126.521 27.1534 125.54 26.7188C124.56 26.2756 123.785 25.6236 123.214 24.7628C122.651 23.8935 122.37 22.8111 122.37 21.5156C122.37 20.4247 122.57 19.5085 122.971 18.767C123.371 18.0256 123.917 17.429 124.607 16.9773C125.298 16.5256 126.082 16.1847 126.96 15.9545C127.846 15.7244 128.775 15.5625 129.746 15.4688C130.888 15.3494 131.809 15.2386 132.508 15.1364C133.207 15.0256 133.714 14.8636 134.029 14.6506C134.344 14.4375 134.502 14.1222 134.502 13.7045V13.6278C134.502 12.8182 134.246 12.1918 133.735 11.7486C133.232 11.3054 132.516 11.0838 131.587 11.0838C130.607 11.0838 129.827 11.3011 129.248 11.7358C128.668 12.1619 128.285 12.6989 128.097 13.3466L123.06 12.9375C123.316 11.7443 123.819 10.7131 124.569 9.84375C125.319 8.96591 126.286 8.29261 127.471 7.82386C128.664 7.34659 130.045 7.10795 131.613 7.10795C132.704 7.10795 133.748 7.2358 134.745 7.49148C135.751 7.74716 136.641 8.14347 137.417 8.6804C138.201 9.21733 138.819 9.90767 139.271 10.7514C139.722 11.5866 139.948 12.5881 139.948 13.7557V27H134.783V24.277H134.63C134.315 24.8906 133.893 25.4318 133.364 25.9006C132.836 26.3608 132.201 26.723 131.46 26.9872C130.718 27.2429 129.862 27.3707 128.89 27.3707ZM130.45 23.6122C131.251 23.6122 131.958 23.4545 132.572 23.1392C133.185 22.8153 133.667 22.3807 134.016 21.8352C134.366 21.2898 134.54 20.6719 134.54 19.9815V17.8977C134.37 18.0085 134.136 18.1108 133.837 18.2045C133.548 18.2898 133.219 18.3707 132.853 18.4474C132.487 18.5156 132.12 18.5795 131.754 18.6392C131.387 18.6903 131.055 18.7372 130.756 18.7798C130.117 18.8736 129.559 19.0227 129.082 19.2273C128.604 19.4318 128.234 19.7088 127.969 20.0582C127.705 20.3991 127.573 20.8253 127.573 21.3366C127.573 22.0781 127.842 22.6449 128.379 23.0369C128.924 23.4205 129.614 23.6122 130.45 23.6122ZM154.618 7.36364V11.4545H142.793V7.36364H154.618ZM145.477 2.65909H150.923V20.9659C150.923 21.4687 151 21.8608 151.153 22.142C151.307 22.4148 151.52 22.6065 151.793 22.7173C152.074 22.8281 152.398 22.8835 152.764 22.8835C153.02 22.8835 153.276 22.8622 153.531 22.8196C153.787 22.7685 153.983 22.7301 154.119 22.7045L154.976 26.7571C154.703 26.8423 154.32 26.9403 153.825 27.0511C153.331 27.1705 152.73 27.2429 152.023 27.2685C150.71 27.3196 149.56 27.1449 148.571 26.7443C147.591 26.3437 146.828 25.7216 146.283 24.8778C145.737 24.0341 145.469 22.9687 145.477 21.6818V2.65909Z" fill="black"/>
</svg>
