<svg width="120" height="40" viewBox="0 0 120 40" fill="none" xmlns="http://www.w3.org/2000/svg">
<path d="M0 0H60V40H0V0Z" fill="#272727"/>
<path d="M60 0H120V40H60V0Z" fill="white"/>
<path fill-rule="evenodd" clip-rule="evenodd" d="M115 5H65V35H115V5ZM60 0V40H120V0H60Z" fill="#272727"/>
<path d="M10.8239 27.0001V12.4546H19.6023V14.0171H12.5852V18.9319H19.1477V20.4944H12.5852V25.4376H19.7159V27.0001H10.8239Z" fill="white"/>
<path d="M34.3111 12.4546V27.0001H32.6065L24.6804 15.5796H24.5383V27.0001H22.777V12.4546H24.4815L32.4361 23.9035H32.5781V12.4546H34.3111Z" fill="white"/>
<path d="M47.7788 17.0001C47.6225 16.5218 47.4165 16.0933 47.1609 15.7145C46.9099 15.331 46.6092 15.0043 46.2589 14.7344C45.9132 14.4645 45.5202 14.2586 45.0799 14.1165C44.6395 13.9745 44.1566 13.9035 43.631 13.9035C42.7693 13.9035 41.9857 14.126 41.2802 14.5711C40.5747 15.0162 40.0136 15.6719 39.5969 16.5384C39.1803 17.4049 38.9719 18.4679 38.9719 19.7273C38.9719 20.9868 39.1826 22.0498 39.604 22.9162C40.0254 23.7827 40.596 24.4385 41.3157 24.8836C42.0354 25.3287 42.845 25.5512 43.7447 25.5512C44.578 25.5512 45.3119 25.3736 45.9464 25.0185C46.5856 24.6587 47.0827 24.152 47.4378 23.4986C47.7977 22.8405 47.9776 22.0663 47.9776 21.1762L48.5174 21.2898H44.1424V19.7273H49.6822V21.2898C49.6822 22.4877 49.4265 23.5294 48.9151 24.4148C48.4085 25.3002 47.7077 25.9868 46.8128 26.4745C45.9227 26.9574 44.9 27.1989 43.7447 27.1989C42.4568 27.1989 41.3252 26.8959 40.3498 26.2898C39.3791 25.6838 38.6216 24.822 38.077 23.7046C37.5373 22.5872 37.2674 21.2614 37.2674 19.7273C37.2674 18.5768 37.4213 17.5422 37.729 16.6236C38.0415 15.7003 38.4819 14.9144 39.0501 14.2657C39.6182 13.617 40.2906 13.1198 41.0671 12.7742C41.8436 12.4286 42.6983 12.2557 43.631 12.2557C44.3981 12.2557 45.113 12.3717 45.7759 12.6037C46.4435 12.831 47.0377 13.1554 47.5586 13.5768C48.0842 13.9934 48.5221 14.493 48.8725 15.0753C49.2229 15.653 49.4644 16.2946 49.5969 17.0001H47.7788Z" fill="white"/>
<path d="M77.9528 27V12.4546H82.8675C84.0039 12.4546 84.9367 12.6487 85.6658 13.037C86.395 13.4205 86.9348 13.9484 87.2851 14.6208C87.6355 15.2931 87.8107 16.0578 87.8107 16.9148C87.8107 17.7718 87.6355 18.5318 87.2851 19.1946C86.9348 19.8575 86.3974 20.3784 85.6729 20.7571C84.9485 21.1312 84.0228 21.3182 82.8959 21.3182H78.9187V19.7273H82.8391C83.6156 19.7273 84.2406 19.6137 84.7141 19.3864C85.1923 19.1591 85.538 18.8372 85.7511 18.4205C85.9689 17.9991 86.0778 17.4972 86.0778 16.9148C86.0778 16.3324 85.9689 15.8234 85.7511 15.3878C85.5333 14.9522 85.1852 14.616 84.707 14.3793C84.2288 14.1378 83.5967 14.0171 82.8107 14.0171H79.7141V27H77.9528ZM84.7994 20.466L88.3789 27H86.3334L82.8107 20.466H84.7994Z" fill="#272727"/>
<path d="M100.291 12.4546H102.053V22.0853C102.053 23.0796 101.818 23.9674 101.349 24.7486C100.885 25.5251 100.23 26.1383 99.3821 26.5881C98.5346 27.0332 97.5402 27.2557 96.3991 27.2557C95.258 27.2557 94.2637 27.0332 93.4162 26.5881C92.5686 26.1383 91.9105 25.5251 91.4417 24.7486C90.9777 23.9674 90.7457 23.0796 90.7457 22.0853V12.4546H92.5071V21.9432C92.5071 22.6535 92.6633 23.2856 92.9758 23.8395C93.2883 24.3888 93.7334 24.822 94.3111 25.1392C94.8935 25.4517 95.5895 25.608 96.3991 25.608C97.2088 25.608 97.9048 25.4517 98.4872 25.1392C99.0696 24.822 99.5147 24.3888 99.8224 23.8395C100.135 23.2856 100.291 22.6535 100.291 21.9432V12.4546Z" fill="#272727"/>
</svg>
