<svg width="100" height="34" viewBox="0 0 100 34" fill="none" xmlns="http://www.w3.org/2000/svg">
<path d="M2.5 2.83337H47.5V31.1667H2.5V2.83337Z" stroke="#272727" stroke-width="5"/>
<path d="M50 0.333374H100V33.6667H50V0.333374Z" fill="#272727"/>
<path d="M65.4091 23V11.3636H69.3409C70.25 11.3636 70.9962 11.5189 71.5795 11.8295C72.1629 12.1364 72.5947 12.5587 72.875 13.0966C73.1553 13.6345 73.2955 14.2462 73.2955 14.9318C73.2955 15.6174 73.1553 16.2254 72.875 16.7557C72.5947 17.286 72.1648 17.7027 71.5852 18.0057C71.0057 18.3049 70.2652 18.4545 69.3636 18.4545H66.1818V17.1818H69.3182C69.9394 17.1818 70.4394 17.0909 70.8182 16.9091C71.2008 16.7273 71.4773 16.4697 71.6477 16.1364C71.822 15.7992 71.9091 15.3977 71.9091 14.9318C71.9091 14.4659 71.822 14.0587 71.6477 13.7102C71.4735 13.3617 71.1951 13.0928 70.8125 12.9034C70.4299 12.7102 69.9242 12.6136 69.2955 12.6136H66.8182V23H65.4091ZM70.8864 17.7727L73.75 23H72.1136L69.2955 17.7727H70.8864ZM83.2798 11.3636H84.6889V19.0682C84.6889 19.8636 84.5014 20.5739 84.1264 21.1989C83.7552 21.8201 83.2306 22.3106 82.5526 22.6705C81.8745 23.0265 81.0791 23.2045 80.1662 23.2045C79.2533 23.2045 78.4579 23.0265 77.7798 22.6705C77.1018 22.3106 76.5753 21.8201 76.2003 21.1989C75.8291 20.5739 75.6435 19.8636 75.6435 19.0682V11.3636H77.0526V18.9545C77.0526 19.5227 77.1776 20.0284 77.4276 20.4716C77.6776 20.911 78.0336 21.2576 78.4957 21.5114C78.9616 21.7614 79.5185 21.8864 80.1662 21.8864C80.8139 21.8864 81.3707 21.7614 81.8366 21.5114C82.3026 21.2576 82.6586 20.911 82.9048 20.4716C83.1548 20.0284 83.2798 19.5227 83.2798 18.9545V11.3636Z" fill="white"/>
<path d="M9 23.2869V11.1657H16.3153V12.4678H10.4678V16.5634H15.9366V17.8655H10.4678V21.9848H16.41V23.2869H9Z" fill="black"/>
<path d="M28.5727 11.1657V23.2869H27.1522L20.5471 13.7699H20.4287V23.2869H18.9609V11.1657H20.3814L27.0102 20.7064H27.1286V11.1657H28.5727Z" fill="black"/>
<path d="M39.7958 14.9536C39.6655 14.5551 39.4939 14.198 39.2808 13.8823C39.0717 13.5627 38.8212 13.2905 38.5292 13.0656C38.2411 12.8407 37.9136 12.669 37.5467 12.5507C37.1797 12.4323 36.7773 12.3731 36.3393 12.3731C35.6212 12.3731 34.9682 12.5586 34.3803 12.9295C33.7924 13.3003 33.3248 13.8468 32.9776 14.5689C32.6303 15.291 32.4567 16.1768 32.4567 17.2263C32.4567 18.2759 32.6323 19.1617 32.9835 19.8838C33.3347 20.6058 33.8101 21.1523 34.4099 21.5232C35.0096 21.8941 35.6843 22.0795 36.434 22.0795C37.1285 22.0795 37.74 21.9316 38.2688 21.6357C38.8014 21.3358 39.2157 20.9136 39.5117 20.3691C39.8115 19.8206 39.9615 19.1755 39.9615 18.4337L40.4113 18.5284H36.7654V17.2263H41.3819V18.5284C41.3819 19.5267 41.1689 20.3947 40.7427 21.1326C40.3205 21.8704 39.7366 22.4426 38.9908 22.849C38.249 23.2514 37.3968 23.4527 36.434 23.4527C35.3608 23.4527 34.4178 23.2001 33.6049 22.6951C32.7961 22.19 32.1648 21.4719 31.711 20.5407C31.2612 19.6095 31.0363 18.5047 31.0363 17.2263C31.0363 16.2675 31.1645 15.4054 31.421 14.6399C31.6814 13.8705 32.0484 13.2155 32.5218 12.675C32.9953 12.1344 33.5556 11.7201 34.2027 11.4321C34.8498 11.144 35.562 11 36.3393 11C36.9785 11 37.5743 11.0967 38.1267 11.29C38.6831 11.4794 39.1782 11.7497 39.6123 12.1009C40.0502 12.4481 40.4152 12.8643 40.7072 13.3497C40.9992 13.831 41.2004 14.3657 41.3109 14.9536H39.7958Z" fill="black"/>
</svg>
